<svg xmlns="http://www.w3.org/2000/svg" version="1.1" xmlns:xlink="http://www.w3.org/1999/xlink" xmlns:svgjs="http://svgjs.com/svgjs" width="1440" height="560" preserveAspectRatio="none" viewBox="0 0 1440 560"><g mask="url(&quot;#SvgjsMask3758&quot;)" fill="none"><rect width="1440" height="560" x="0" y="0" fill="url(#SvgjsLinearGradient3759)"></rect><rect width="216" height="216" clip-path="url(&quot;#SvgjsClipPath3760&quot;)" x="93.05" y="214.87" fill="url(#SvgjsPattern3761)" transform="rotate(325.57, 201.05, 322.87)"></rect><path d="M329.4 483.20000000000005 L321.65999999999997 482.84000000000003L322.6157014789766 485.93429852102344z" fill="rgba(255, 1, 0, 1)"></path><rect width="318.56" height="318.56" clip-path="url(&quot;#SvgjsClipPath3762&quot;)" x="1066.36" y="211.12" fill="url(#SvgjsPattern3763)" transform="rotate(350.7, 1225.64, 370.4)"></rect><rect width="101.8" height="101.8" clip-path="url(&quot;#SvgjsClipPath3764&quot;)" x="-40.52" y="177.3" fill="url(#SvgjsPattern3765)" transform="rotate(155.17, 10.38, 228.2)"></rect><rect width="282.04" height="282.04" clip-path="url(&quot;#SvgjsClipPath3766&quot;)" x="1195.25" y="349.87" fill="url(#SvgjsPattern3767)" transform="rotate(319.51, 1336.27, 490.89)"></rect><rect width="300" height="300" clip-path="url(&quot;#SvgjsClipPath3768&quot;)" x="1283.07" y="-6.58" fill="url(#SvgjsPattern3769)" transform="rotate(125.78, 1433.07, 143.42)"></rect><circle r="69.54590210058615" cx="1424.73" cy="305.68" stroke="rgba(245, 205, 0, 1)" stroke-width="1.58"></circle><rect width="336" height="336" clip-path="url(&quot;#SvgjsClipPath3770&quot;)" x="809.72" y="390.52" fill="url(#SvgjsPattern3771)" transform="rotate(209.27, 977.72, 558.52)"></rect><rect width="204" height="204" clip-path="url(&quot;#SvgjsClipPath3772&quot;)" x="51.55" y="26.82" fill="url(#SvgjsPattern3773)" transform="rotate(82.07, 153.55, 128.82)"></rect><rect width="252" height="252" clip-path="url(&quot;#SvgjsClipPath3774&quot;)" x="539.87" y="-124.65" fill="url(#SvgjsPattern3775)" transform="rotate(105.42, 665.87, 1.35)"></rect><path d="M1431.21 410.26 L1330.4599999999998 381.43L1450.4746529434767 326.2053470565233z" fill="rgba(0, 244, 16, 1)"></path><path d="M434.38 167.87 L603.2 122.33L626.6552691858843 252.96526918588438z" fill="rgba(255, 1, 0, 1)"></path></g><defs><mask id="SvgjsMask3758"><rect width="1440" height="560" fill="#ffffff"></rect></mask><linearGradient x1="15.28%" y1="139.29%" x2="84.72%" y2="-39.29%" gradientUnits="userSpaceOnUse" id="SvgjsLinearGradient3759"><stop stop-color="#0e2a47" offset="0"></stop><stop stop-color="rgba(54, 0, 77, 1)" offset="0.81"></stop><stop stop-color="rgba(0, 23, 53, 1)" offset="1"></stop></linearGradient><pattern x="0" y="0" width="6" height="6" patternUnits="userSpaceOnUse" id="SvgjsPattern3761"><path d="M0 6L3 0L6 6" stroke="rgba(0, 244, 16, 1)" fill="none"></path></pattern><clipPath id="SvgjsClipPath3760"><circle r="54" cx="201.05" cy="322.87"></circle></clipPath><pattern x="0" y="0" width="7.24" height="7.24" patternUnits="userSpaceOnUse" id="SvgjsPattern3763"><path d="M3.62 1L3.62 6.24M1 3.62L6.24 3.62" stroke="rgba(255, 1, 0, 1)" fill="none" stroke-width="2.42"></path></pattern><clipPath id="SvgjsClipPath3762"><circle r="79.64" cx="1225.64" cy="370.4"></circle></clipPath><pattern x="0" y="0" width="101.8" height="10.18" patternUnits="userSpaceOnUse" id="SvgjsPattern3765"><rect width="101.8" height="5.09" x="0" y="0" fill="rgba(255, 1, 0, 1)"></rect><rect width="101.8" height="5.09" x="0" y="5.09" fill="rgba(0, 0, 0, 0)"></rect></pattern><clipPath id="SvgjsClipPath3764"><circle r="25.45" cx="10.38" cy="228.2"></circle></clipPath><pattern x="0" y="0" width="282.04" height="12.82" patternUnits="userSpaceOnUse" id="SvgjsPattern3767"><rect width="282.04" height="6.41" x="0" y="0" fill="rgba(245, 205, 0, 1)"></rect><rect width="282.04" height="6.41" x="0" y="6.41" fill="rgba(0, 0, 0, 0)"></rect></pattern><clipPath id="SvgjsClipPath3766"><circle r="70.51" cx="1336.27" cy="490.89"></circle></clipPath><pattern x="0" y="0" width="6" height="6" patternUnits="userSpaceOnUse" id="SvgjsPattern3769"><path d="M3 1L3 5M1 3L5 3" stroke="rgba(0, 244, 16, 1)" fill="none" stroke-width="1"></path></pattern><clipPath id="SvgjsClipPath3768"><circle r="75" cx="1433.07" cy="143.42"></circle></clipPath><pattern x="0" y="0" width="336" height="6" patternUnits="userSpaceOnUse" id="SvgjsPattern3771"><rect width="336" height="3" x="0" y="0" fill="rgba(255, 1, 0, 1)"></rect><rect width="336" height="3" x="0" y="3" fill="rgba(0, 0, 0, 0)"></rect></pattern><clipPath id="SvgjsClipPath3770"><circle r="84" cx="977.72" cy="558.52"></circle></clipPath><pattern x="0" y="0" width="6" height="6" patternUnits="userSpaceOnUse" id="SvgjsPattern3773"><path d="M0 6L3 0L6 6" stroke="rgba(255, 1, 0, 1)" fill="none"></path></pattern><clipPath id="SvgjsClipPath3772"><circle r="51" cx="153.55" cy="128.82"></circle></clipPath><pattern x="0" y="0" width="252" height="6" patternUnits="userSpaceOnUse" id="SvgjsPattern3775"><rect width="252" height="3" x="0" y="0" fill="rgba(0, 244, 16, 1)"></rect><rect width="252" height="3" x="0" y="3" fill="rgba(0, 0, 0, 0)"></rect></pattern><clipPath id="SvgjsClipPath3774"><circle r="63" cx="665.87" cy="1.35"></circle></clipPath></defs></svg>